<svg xmlns="http://www.w3.org/2000/svg" xmlns:xlink="http://www.w3.org/1999/xlink" xml:space="preserve" id="Layer_2" x="0" y="0" style="enable-background:new 0 0 379.8 139.8" version="1.1" viewBox="0 0 379.8 139.8"><style>.st0{fill:#5b056a}</style><path d="M186.2 129.4c-9.2 0-16.5-7.4-16.5-16.9v-.1c0-9.5 7.2-17 16.5-17 7.6 0 11.9 4.4 13 5.8l.2.2-2.4 2.6-.2-.3c-3.3-3.2-6.8-4.8-10.7-4.8-7 0-12.5 5.9-12.5 13.3v.1c0 7.5 5.6 13.4 12.7 13.4 5.3 0 8.8-3 10.4-4.9l.2-.3 2.5 2.2-.2.2c-1.3 2.4-5.9 6.5-13 6.5zM225.6 99.2c-2.2-2.2-5.6-3.4-10.1-3.4-3.8 0-8 1-11.6 2.9l-.3.1 1.4 3.1.3-.2c3.4-1.7 6.5-2.5 9.8-2.5 6.7 0 10.1 3 10.1 9v.1H216c-9.7 0-14.7 3.6-14.7 10.8v.1c0 6.8 6.2 10.4 12.3 10.4 6.3 0 10.1-3.2 11.6-5.1v4.4h3.6v-20.7c.1-3.9-1-6.9-3.2-9zm-.3 16.6c0 7.2-5.7 10.4-11.4 10.4-5.1 0-8.7-3-8.7-7.1 0-5.2 3.3-7.3 11.2-7.3h8.9v4zM278.8 96.2v5.6c-2.1-3.2-6.8-6.2-12.7-6.2-3.9 0-7.7 1.5-10.6 4.2-3.1 2.9-4.8 6.9-4.8 11.3v.1c0 4.3 1.7 8.4 4.8 11.2 2.8 2.7 6.7 4.2 10.6 4.2 5.8 0 10.5-3.1 12.7-6.5v1.7c0 8.3-4.2 12.9-11.9 12.9-5.4 0-9.2-2.1-12.4-4.4l-.3-.2-2.1 3 .2.2c.6.5 6 5 14.5 5 4.7 0 8.8-1.5 11.6-4.4 2.8-2.9 4-6.6 4-12.2V96.2h-3.6zm-.1 15c0 7.3-6.4 11.9-12.3 11.9-6.6 0-11.7-5.2-11.7-11.9v-.2c0-6.8 4.9-11.8 11.7-11.8 6.1 0 12.3 4.4 12.3 11.9v.1zM237.3 129.1h-3.8V96.2h3.8v7.8c2.9-5.3 8-8.4 13.9-8.1h.3v3.9h-.7c-6.7 0-13.6 4.8-13.6 15.7v13.6h.1zM302.8 129.4c-9.3 0-16.6-7.4-16.6-16.9v-.1c0-9.5 7.4-17 16.7-17 9.3 0 16.6 7.4 16.6 16.9v.1c0 9.5-7.4 17-16.7 17zm0-30.4c-7 0-12.6 5.8-12.6 13.3v.1c0 7.5 5.6 13.4 12.7 13.4 7 0 12.6-5.8 12.6-13.3v-.1c0-7.5-5.6-13.4-12.7-13.4zM18.5 82.2h-3.3L0 49.3h4.4l12.5 28 12.4-28h4.2l-15 32.9zm22.3-36.6H37v-4.4h3.8v4.4zm0 36.6H37V49.3h3.8v32.9zm61.9-36.7H99v-4.4h3.8v4.4h-.1zm0 36.6H99V49.2h3.8v32.9h-.1zm94.5 0h-3.8V41.2h3.8v40.9zm87.1-36.6h-3.7v-4.4h3.7v4.4zm0 36.6h-3.7V49.2h3.7v32.9zm-101.1 0h-3.7V41.2h3.7v8h6.4v3.5h-6.4v29.4zm87.1 0h-3.7V41.2h3.7v8h6.4v3.5h-6.4v29.4zm-110.5.7c-6.1 0-12.3-3.6-12.3-10.4v-.1c0-7.1 5-10.8 14.7-10.8h9.2v-.1c0-6-3.4-9-10.1-9-3.2 0-6.3.8-9.8 2.5l-.3.2-1.4-3.1.3-.1c3.7-1.9 7.8-2.9 11.6-2.9 4.4 0 7.8 1.1 10.1 3.4 2.2 2.2 3.2 5.2 3.2 9.2v20.7h-3.6v-4.4c-1.5 1.7-5.3 4.9-11.6 4.9zm-8.4-10.6c0 4.1 3.7 7.1 8.7 7.1 5.7 0 11.4-3.2 11.4-10.4v-4h-8.9c-8 .1-11.2 2.2-11.2 7.3zM214 82.8c-6.1 0-12.3-3.6-12.3-10.4v-.1c0-7.1 4.9-10.8 14.7-10.8h9.2v-.1c0-6-3.4-9-10.1-9-3.2 0-6.3.8-9.8 2.5l-.3.2L204 52l.3-.1c3.7-1.9 7.8-2.9 11.6-2.9 4.4 0 7.8 1.1 10.1 3.4 2.2 2.2 3.2 5.2 3.2 9.2v20.7h-3.6v-4.4c-1.4 1.7-5.2 4.9-11.6 4.9zm-8.4-10.6c0 4.1 3.7 7.1 8.7 7.1 5.7 0 11.4-3.2 11.4-10.4v-4h-8.9c-7.9.1-11.2 2.2-11.2 7.3zm-70.1 9.9h-3.8V64.7c0-3.8 0-12.6-9.7-12.6-6.9 0-11 5.2-11 13.9v16h-3.7V49.2h3.7v5.5c1.3-2 4.8-6 11.4-6 8.4 0 13 5.1 13 14.3v19.1h.1zm126.6 0h-3.8V64.7c0-3.8 0-12.6-9.7-12.6-6.9 0-11 5.2-11 13.9v16H234V49.2h3.7v5.5c1.3-2 4.8-6 11.4-6 8.4 0 13 5.1 13 14.3v19.1zM78.8 91.4c-8.5 0-13.9-4.5-14.5-5l-.3-.1 2.1-3 .3.2c3.3 2.3 7 4.4 12.4 4.4 7.6 0 11.9-4.6 11.9-12.9v-1.7c-2.2 3.4-6.9 6.5-12.7 6.5-3.9 0-7.7-1.5-10.6-4.2-3.1-2.9-4.8-6.9-4.8-11.2v-.1c0-4.4 1.7-8.4 4.8-11.3 2.8-2.7 6.7-4.2 10.6-4.2 5.8 0 10.5 2.9 12.7 6.2v-5.6h3.7v25.7c0 5.5-1.2 9.3-4 12.2-2.8 2.6-6.9 4.1-11.6 4.1zm-.5-39.1c-6.8 0-11.7 5-11.7 11.8v.1c0 6.7 5.2 11.9 11.7 11.9 5.9 0 12.3-4.5 12.3-11.9v-.1c.1-7.3-6.2-11.8-12.3-11.8zM305 82.5c-9.2 0-16.5-7.4-16.5-16.9v-.1c0-9.5 7.2-17 16.5-17 7.6 0 11.9 4.4 13 5.8l.2.2-2.4 2.6-.2-.3c-3.3-3.2-6.8-4.8-10.7-4.8-7 0-12.5 5.9-12.5 13.3v.1c0 7.5 5.6 13.4 12.7 13.4 5.3 0 8.8-3 10.4-4.9l.2-.3 2.5 2.2-.2.2c-1.3 2.4-5.9 6.5-13 6.5zm-255.8-.3h-3.8V49.3h3.8v7.8c2.9-5.3 8-8.4 13.9-8.1h.3v3.9h-.7c-6.7 0-13.6 4.8-13.6 15.7v13.6h.1z" class="st0"/><defs><path id="SVGID_1_" d="M379.8.8h-32.2c-10 0-12.4 1.6-16.4 6l-28.8 31.6c23-1.1 30.1 22 53.4 15.7l24-53.3z"/></defs><use xlink:href="#SVGID_1_" style="overflow:visible;fill:#eb143a"/><clipPath id="SVGID_2_"><use xlink:href="#SVGID_1_" style="overflow:visible"/></clipPath><path d="M337.7 13.1s1.4-2.6 2.6-3.5c0 0 1.2-.7 1.3-2 0 0 .1-.8-.6-1.3 0 0-1.7-1.4-3.2 1 0 0-6.7 12.6-9 25.3 0 0-.2.4-.2-.7 0 0-1-10.7-1-11.1 0-.4 0-1.4-.9-1.4 0 0-1.1-.2-1.7 1.4l-3 7.3s-.5.9.3 1.3c0 0 .9.5 1.5-.7l1.4-2.9c.3-.6.5-.5.5-.5.2 0 .2.6.2.6s1.2 14.3 1.2 14.4c0 .1.1 1.3 1.1 1.3.7 0 .9-.8 1.1-1.4.1-.7 1.4-7.5 3.6-14.8 1.4-4.9 3.2-9.8 4.8-12.3zm-2 12.5c-1.4.3-1.6 1.9-1.6 1.9l-.8 6.2c-.1 1.2 1.5.3 1.5.3.7-.4.8-1.2.8-1.2l.3-1.6.8-4.2c.2-1.7-1-1.4-1-1.4zm2.8.6s-.5 3.3-.5 4c0 0-.6 2.7.9 2.3 0 0 1.2-.3 1.4-2l.2-2.3s.1-1.7 1.5-2.5c0 0 1.5-.7 1-1.6 0 0-.3-.7-1.2-.3-.7.3-1 .3-1 .3s-.9.1-1 .1c-.1-.1-1.2 0-1.3 2zm-1.2-3.7c.9-.7.6-1.3.6-1.3-.3-1-1.6.1-1.6.1-1 .7-.7 1.5-.7 1.5.6.7 1.7-.3 1.7-.3zm15.1 4.5s1.2-.3 1.4-1.6c0 0 .7-5 .7-5.2 0-.2.3-1.5-.6-1.3 0 0-1.1.2-1.3 1.3l-.9 4.9-.2 1c.1.1-.2 1.2.9.9zm2.8-10.4s1-.8.5-1.4c0 0-.4-.6-1.6.2 0 0-1 .9-.4 1.5.1-.1.7.5 1.5-.3zm12.3 6.1c-.2-.4-.8-.7-1.9-.2-1.1.5-1.6.7-1.6.7s-1.4.7-1.2-1.1l.4-4.3s.2-1.6-1.1-1.6c0 0-.7-.1-1.7.8 0 0-.5.5-.9.6-.2.1-.5.1-.9 0s-.7-.1-1 0c0 0-1.2.3-1.3 1.9l-.5 3.8s-.3 1.5-.1 1.8c0 0 .1.6 1.2.2 0 0 .9-.3 1-1.9 0 0 .3-3.1.7-3.7 0 0 .5-1 1.3-1.4 0 0 1.1-.5 1 .4l-.4 3.5s-.4 1.7.4 2c0 0 .1 0-.1.1 0 0-5.1 2.2-11.6 5.8.4-3.7 1.2-8.9 1.2-8.9.1-.8-.9-.8-.9-.8-1 0-1.1 1.1-1.2 1.7-.1.5-.8 4.7-.8 4.7-.3 1.9-1.5 1.8-1.5 1.8-1.1.1-.4-2.9-.4-2.9.3-1.1.4-2 1.2-2.7.8-.7.9-1.6.3-1.6-1-.1-2.1 1.1-2.1 1.1-1.9 1.8-1.9 6.3-1.9 6.3 0 1.4.9 1.8.9 1.8 1.2.5 2.8-.4 2.8-.4.4-.3.3.1.3.1l-.1 1.1c-4.8 2.8-10.1 6.2-14.7 10.1 0 0-2.1 1.5-1.3 2.6s2 .1 2.5-.3c0 0 4.7-4.8 13.4-10.2l-.3 3.6c-.1 1.6-.6 6.7-.6 6.7-.2 2 .1 2.4.2 2.5.2.2 1 .9 1.8.3 1.1-.7.5-2.3.4-3.1-.2-.8-.2-2.1-.2-2.1.1-1 .7-8.1.7-8.1 0-.3 0-.7.1-1.1 3.3-2 7.2-4 11.4-5.8 0 0 1.8-.7 3.4-1.2 0 0 .5-.2 1.2-.4.9-.3 2-.7 2.4-1.1.3-.3.4-.7.1-1.1z" style="fill:#fff"/></svg>